<svg id="Layer_1" data-name="Layer 1" xmlns="http://www.w3.org/2000/svg" viewBox="0 0 560 209"><defs><style>.cls-1{fill:#333;}.cls-2{fill:#fff;}.cls-3{fill:#feda8b;}.cls-4{fill:#8980fd;}</style></defs><title>logo-big</title><path class="cls-1" d="M122.5,77.5S131.71,22.78,139,16.14c12.48-11.38,56-13,56-13a8.21,8.21,0,0,1,9.39,10.31S200.5,46.5,184.5,58.5C184.5,58.5,171.5,73.5,122.5,77.5Z"/><path class="cls-2" d="M138.5,62.5s4.76-28.28,8.53-31.72C153.47,24.9,176,24.06,176,24.06a4.24,4.24,0,0,1,4.85,5.33s-2,17.09-10.28,23.29C170.55,52.68,163.83,60.43,138.5,62.5Z"/><polygon class="cls-1" points="80.89 21.37 87.09 36.59 70.55 43.05 80.89 21.37"/><path class="cls-3" d="M25,107a73,73,0,0,1,146,0Z"/><path class="cls-3" d="M283.47,53.15a33.67,33.67,0,0,1,3.32,15.07,33.27,33.27,0,0,1-3.32,15,29.24,29.24,0,0,1-8.56,10.66q-10.59,8.17-22,8.18H237V138.5a36.75,36.75,0,0,1-.19,4.41,10,10,0,0,1-1.22,3.38q-1.78,3.45-10,3.45-8.94,0-10.47-4.72a21.39,21.39,0,0,1-.77-6.65V45.49a39,39,0,0,1,.19-4.41,10.16,10.16,0,0,1,1.22-3.39q1.78-3.45,10-3.44h27.33q11.25,0,21.84,8.17A29.25,29.25,0,0,1,283.47,53.15Zm-22.86,23.5q3.7-2.81,3.7-8.43t-3.7-8.49A12.37,12.37,0,0,0,253,56.85H237V79.46h16.09A12.34,12.34,0,0,0,260.61,76.65Z"/><path class="cls-3" d="M337,81.47q0,5.22-2.59,7.72a8.09,8.09,0,0,1-5.73,2.51H308.59c0,1.58.94,2.91,2.8,4A11.22,11.22,0,0,0,317,97.3a23.33,23.33,0,0,0,7.72-1l.94-.34a8.51,8.51,0,0,1,3.39-.93q2.71,0,4.67,3.82a9.45,9.45,0,0,1,1.1,3.9q0,7.56-18.08,7.56a27.13,27.13,0,0,1-11.16-2.17,18.87,18.87,0,0,1-7.6-5.73A24.42,24.42,0,0,1,292.63,87q0-10.69,6.92-17.11t17.28-6.41q11.79,0,17.31,8.32A17.25,17.25,0,0,1,337,81.47ZM319.12,84c2.15,0,3.22-.9,3.22-2.71a3.84,3.84,0,0,0-1.48-3.15,6.67,6.67,0,0,0-4.24-1.18,8.59,8.59,0,0,0-5.48,2.25c-1.81,1.5-2.72,3.09-2.72,4.79Z"/><path class="cls-3" d="M367.68,79.47l-5.52-.34V90.85a5.86,5.86,0,0,0,.72,3.31,3.13,3.13,0,0,0,2.72,1,29.11,29.11,0,0,1,3,.12,6.15,6.15,0,0,1,2.25.81c1.3.74,2,2.63,2,5.69q0,5.34-2.37,6.53a8,8,0,0,1-2.25.73,25.18,25.18,0,0,1-2.85.12q-8.82,0-13.41-4T347.39,91.7V79.13a22.38,22.38,0,0,1-3.48.26,3.88,3.88,0,0,1-3.1-1.45q-1.23-1.44-1.23-4.92a21.6,21.6,0,0,1,.42-5,4.49,4.49,0,0,1,1.19-2.25,5.26,5.26,0,0,1,3.4-1.1l2.8.34V56.21a24.82,24.82,0,0,1,.12-2.88,5.48,5.48,0,0,1,.81-2c.74-1.41,2.91-2.12,6.54-2.12,3.84,0,6.14,1,6.87,3.14a15.53,15.53,0,0,1,.43,4.33V65c2.49-.23,4.37-.34,5.64-.34a25.62,25.62,0,0,1,2.89.12,7,7,0,0,1,2.25.81q2.21,1.11,2.21,6.54t-2.3,6.53a7.88,7.88,0,0,1-2.25.73A26,26,0,0,1,367.68,79.47Z"/><path class="cls-4" d="M244.24,191.71q-3.31-4.08-3.32-7.34t5.49-8.62a9.68,9.68,0,0,1,6.77-3.07q3.58,0,10,6.39a19.37,19.37,0,0,0,5.1,4.15,12.18,12.18,0,0,0,6.14,2q11.87,0,11.88-9.71c0-2-1.09-3.59-3.26-4.91a24,24,0,0,0-8.11-2.88A73.4,73.4,0,0,1,254,160.16a21,21,0,0,1-8.11-8.49,28.18,28.18,0,0,1-3.26-14,26.84,26.84,0,0,1,8.37-19.6q8.35-8.37,22.8-8.37a46.57,46.57,0,0,1,14,2q6.33,2,8.75,4l3.2,2.42q3.94,3.7,3.95,6.26t-3.06,7q-4.33,6.39-8.94,6.38-2.69,0-6.64-2.55a14.3,14.3,0,0,1-1.47-1.28,21.78,21.78,0,0,0-2-1.66,12.87,12.87,0,0,0-6.83-1.66,11.49,11.49,0,0,0-6.9,2,6.4,6.4,0,0,0-2.75,5.49,6.59,6.59,0,0,0,3.26,5.69,20,20,0,0,0,8.11,2.93,94.48,94.48,0,0,1,10.6,2.37,65.66,65.66,0,0,1,10.6,3.89,18.69,18.69,0,0,1,8.11,8A27.75,27.75,0,0,1,309,175a31.07,31.07,0,0,1-3.32,14.63,25.34,25.34,0,0,1-8.69,9.77,39.64,39.64,0,0,1-22.09,6.77,42.78,42.78,0,0,1-11.37-1.47,30.81,30.81,0,0,1-8.69-3.64q-6.76-4.09-9.45-7.92Z"/><path class="cls-4" d="M314.16,126.25a23.32,23.32,0,0,1,32.51,0,23.41,23.41,0,0,1,3.39,29.29,22.81,22.81,0,0,1-8.87,8.06,24,24,0,0,1-10.82,2.59,23.12,23.12,0,0,1-10.87-2.76,24.08,24.08,0,0,1-8.87-8.15,21.42,21.42,0,0,1-3.6-12.18A21.93,21.93,0,0,1,314.16,126.25Zm10.61,22.88a9,9,0,0,0,5.51,2.08,9.3,9.3,0,0,0,5.61-2.12,7.41,7.41,0,0,0,2.8-6.28c0-2.78-.88-4.84-2.63-6.2a9.11,9.11,0,0,0-5.69-2,8.92,8.92,0,0,0-5.69,2.12,7.57,7.57,0,0,0-2.63,6.24A7.3,7.3,0,0,0,324.77,149.13Z"/><path class="cls-4" d="M373.24,143a6.92,6.92,0,0,0,2.37,5.6,7.76,7.76,0,0,0,5.06,2,8.83,8.83,0,0,0,5-1.57,7.5,7.5,0,0,1,3.78-1.58c1.7,0,3.76,1.51,6.2,4.5a7.5,7.5,0,0,1,2,4.42q0,3.23-4.67,6a20.18,20.18,0,0,1-11.88,3.39q-7.91,0-15.2-5.69a20.35,20.35,0,0,1-5.69-7.25,22.65,22.65,0,0,1-2.2-10,22.08,22.08,0,0,1,2.2-9.93,20.62,20.62,0,0,1,5.69-7.18,23.77,23.77,0,0,1,15-5.6,22.48,22.48,0,0,1,6.28.89,21.78,21.78,0,0,1,4.5,1.74l1.36.85c1,.68,1.81,1.22,2.37,1.61a4.87,4.87,0,0,1,2.21,3.87,9.16,9.16,0,0,1-1.78,4.88q-3.06,4.67-5.86,4.67c-1.08,0-2.6-.63-4.58-1.87a6.15,6.15,0,0,0-4.38-1.44,8.14,8.14,0,0,0-5.3,2A6.94,6.94,0,0,0,373.24,143Z"/><path class="cls-4" d="M417.08,112.37a3.58,3.58,0,0,1-2.25,1.74,18.26,18.26,0,0,1-8.57,0,3.53,3.53,0,0,1-2.25-1.78,7.32,7.32,0,0,1-.77-2.25,35.83,35.83,0,0,1,0-5.86,7,7,0,0,1,.73-2.16c.79-1.53,3-2.29,6.62-2.29s5.71.76,6.45,2.29a7,7,0,0,1,.81,2.25,35.83,35.83,0,0,1,0,5.86A6.84,6.84,0,0,1,417.08,112.37Zm-14,15.75a26.19,26.19,0,0,1,.12-2.93,8,8,0,0,1,.73-2.25c.79-1.47,3-2.2,6.62-2.2,2.71,0,4.64.48,5.77,1.44a4.7,4.7,0,0,1,1.53,3.65c.05.56.08,1.39.08,2.46V158a26.19,26.19,0,0,1-.12,2.93,7,7,0,0,1-.81,2.25q-1.11,2.2-6.54,2.21t-6.53-2.3a7.93,7.93,0,0,1-.73-2.2,26.16,26.16,0,0,1-.12-3Z"/><path class="cls-4" d="M467.89,137.67c0,3.48-.87,6.06-2.59,7.72a8.05,8.05,0,0,1-5.73,2.51H439.45q0,2.37,2.8,4a11.18,11.18,0,0,0,5.6,1.61,23.39,23.39,0,0,0,7.73-1l.93-.34a8.59,8.59,0,0,1,3.4-.93c1.81,0,3.36,1.27,4.67,3.82a9.45,9.45,0,0,1,1.1,3.9q0,7.56-18.08,7.56a27.3,27.3,0,0,1-11.16-2.16,19,19,0,0,1-7.6-5.73,24.41,24.41,0,0,1-5.35-15.37q0-10.69,6.92-17.1t17.27-6.41q11.81,0,17.32,8.32A17.27,17.27,0,0,1,467.89,137.67ZM450,140.17c2.14,0,3.22-.9,3.22-2.71a3.85,3.85,0,0,0-1.48-3.14,6.7,6.7,0,0,0-4.25-1.19,8.56,8.56,0,0,0-5.47,2.25c-1.82,1.5-2.72,3.1-2.72,4.79Z"/><path class="cls-4" d="M498.53,135.68l-5.52-.34v11.71a5.86,5.86,0,0,0,.72,3.31,3.14,3.14,0,0,0,2.72,1,26.31,26.31,0,0,1,3.06.13,6.06,6.06,0,0,1,2.25.8q2,1.11,1.95,5.69,0,5.35-2.38,6.54a8.25,8.25,0,0,1-2.25.72,24.62,24.62,0,0,1-2.84.13q-8.83,0-13.41-4t-4.59-13.5V135.34a22.24,22.24,0,0,1-3.48.25,3.91,3.91,0,0,1-3.1-1.44q-1.23-1.44-1.23-4.93a20.94,20.94,0,0,1,.43-5,4.58,4.58,0,0,1,1.19-2.25,5.21,5.21,0,0,1,3.39-1.1l2.8.34v-8.74a24.38,24.38,0,0,1,.13-2.89,5.38,5.38,0,0,1,.81-2q1.1-2.11,6.53-2.12,5.78,0,6.88,3.14a16.06,16.06,0,0,1,.42,4.33v8.32c2.49-.23,4.38-.34,5.65-.34a23.22,23.22,0,0,1,2.89.13,6.7,6.7,0,0,1,2.24.8c1.48.74,2.21,2.92,2.21,6.54s-.76,5.74-2.29,6.54a8.25,8.25,0,0,1-2.25.72A25.67,25.67,0,0,1,498.53,135.68Z"/><path class="cls-4" d="M551,121.16q5,2.2,5,5.35a6.36,6.36,0,0,1-.68,2.88,14.67,14.67,0,0,0-.68,1.45L532.4,180.58a23.51,23.51,0,0,1-1.15,2.46,5.15,5.15,0,0,1-1.48,1.62,4.19,4.19,0,0,1-2.55.76,12.74,12.74,0,0,1-4.5-1.27c-3.34-1.48-5-3.23-5-5.27q0-2,8.15-19.44L509,131a9.57,9.57,0,0,1-1.7-4.16q0-2.71,4.59-5.44a9.91,9.91,0,0,1,4.5-1.69,4.61,4.61,0,0,1,2.63.68,5,5,0,0,1,1.48,1.4q.46.72,4.67,7.89t8,13.37c.29-.9,1.81-4.4,4.59-10.48s4.26-9.33,4.46-9.72a8.24,8.24,0,0,1,1-1.45,3.69,3.69,0,0,1,3.1-1.44A12.13,12.13,0,0,1,551,121.16Z"/><rect class="cls-4" x="12" y="101" width="175" height="104" rx="16.79"/><circle class="cls-1" cx="97.5" cy="153" r="36"/><circle class="cls-2" cx="97.5" cy="153" r="25.5"/><path class="cls-1" d="M26,70.4S7.84,40.45,9.06,29.43C10,21,42.93,7.8,73,15.32,79.8,17,84.14,23.46,79.66,28.8c0,0-15.09,27-37.13,44.2C36.73,77.53,28.76,77.22,26,70.4Z"/><path class="cls-1" d="M56.55,98.14C56.55,109.6,39.19,124,26,124S2,114.71,2,103.25,12.73,82.5,26,82.5,56.55,86.68,56.55,98.14Z"/><path class="cls-1" d="M136,98.14C136,109.6,153.36,124,166.59,124s24-9.29,24-20.75-10.73-20.75-24-20.75S136,86.68,136,98.14Z"/><circle class="cls-1" cx="126" cy="63" r="7"/><path class="cls-1" d="M115,83.29C115,89.18,104.13,97,98.24,97S83,89.18,83,83.29s9.6-9.15,15.49-9.15S115,77.39,115,83.29Z"/><circle class="cls-1" cx="70" cy="63" r="7"/></svg>