<svg id="Layer_1" data-name="Layer 1" xmlns="http://www.w3.org/2000/svg" viewBox="0 0 207 206"><defs><style>.cls-1{fill:#333;}.cls-2{fill:#fff;}.cls-3{fill:#feda8b;}.cls-4{fill:#8980fd;}</style></defs><title>logo-small</title><path class="cls-1" d="M122.5,76.5S131.71,21.78,139,15.14c12.48-11.38,56-13,56-13a8.21,8.21,0,0,1,9.39,10.31S200.5,45.5,184.5,57.5C184.5,57.5,171.5,72.5,122.5,76.5Z"/><path class="cls-2" d="M138.5,61.5s4.76-28.28,8.53-31.72C153.47,23.9,176,23.06,176,23.06a4.24,4.24,0,0,1,4.85,5.33s-2,17.09-10.28,23.29C170.55,51.68,163.83,59.43,138.5,61.5Z"/><polygon class="cls-1" points="80.89 20.37 87.09 35.59 70.55 42.05 80.89 20.37"/><path class="cls-3" d="M25,106a73,73,0,0,1,146,0Z"/><rect class="cls-4" x="12" y="100" width="175" height="104" rx="16.79"/><circle class="cls-1" cx="97.5" cy="152" r="36"/><circle class="cls-2" cx="97.5" cy="152" r="25.5"/><path class="cls-1" d="M26,69.4S7.84,39.45,9.06,28.43C10,20,42.93,6.8,73,14.32,79.8,16,84.14,22.46,79.66,27.8c0,0-15.09,27-37.13,44.2C36.73,76.53,28.76,76.22,26,69.4Z"/><path class="cls-1" d="M56.55,97.14C56.55,108.6,39.19,123,26,123S2,113.71,2,102.25,12.73,81.5,26,81.5,56.55,85.68,56.55,97.14Z"/><path class="cls-1" d="M136,97.14C136,108.6,153.36,123,166.59,123s24-9.29,24-20.75-10.73-20.75-24-20.75S136,85.68,136,97.14Z"/><circle class="cls-1" cx="126" cy="62" r="7"/><path class="cls-1" d="M115,82.29C115,88.18,104.13,96,98.24,96S83,88.18,83,82.29s9.6-9.15,15.49-9.15S115,76.39,115,82.29Z"/><circle class="cls-1" cx="70" cy="62" r="7"/></svg>