<svg xmlns="http://www.w3.org/2000/svg" viewBox="0 0 362 345"><defs><style>.cls-1{fill:none;stroke:#f5ca41;stroke-miterlimit:10;stroke-width:5px;}</style></defs><title>work copy</title><g id="Layer_3" data-name="Layer 3"><polygon class="cls-1" points="178 68.87 238.39 173.47 298.78 278.07 178 278.07 57.22 278.07 117.61 173.47 178 68.87"/><polygon class="cls-1" points="54.31 31.52 117.56 78.12 180.8 124.72 108.82 156.19 36.84 187.66 45.57 109.59 54.31 31.52"/><polygon class="cls-1" points="250.11 65.34 283.95 109.31 317.78 153.29 262.78 160.6 207.77 167.91 228.94 116.63 250.11 65.34"/><polygon class="cls-1" points="201.59 68.13 191.29 51.7 180.99 35.27 200.37 34.57 219.75 33.86 210.67 51 201.59 68.13"/><polygon class="cls-1" points="333.39 196.22 332.77 259.88 332.16 323.54 277.34 291.18 222.52 258.82 277.95 227.52 333.39 196.22"/><polygon class="cls-1" points="213.11 199.28 224.86 214.14 236.62 229.01 217.87 231.75 199.12 234.5 206.11 216.89 213.11 199.28"/><polygon class="cls-1" points="47.01 210.46 49.18 229.28 51.35 248.11 33.97 240.58 16.58 233.05 31.79 221.75 47.01 210.46"/><polygon class="cls-1" points="93.48 259.64 107.97 277.97 122.46 296.29 99.34 299.68 76.23 303.06 84.85 281.35 93.48 259.64"/><polygon class="cls-1" points="195.62 291.13 205.95 307.01 216.28 322.9 197.36 323.9 178.44 324.91 187.03 308.02 195.62 291.13"/></g></svg>